<mxfile host="app.diagrams.net" agent="Mozilla/5.0 (Windows NT 10.0; Win64; x64; rv:130.0) Gecko/20100101 Firefox/130.0" version="24.7.14">
  <diagram name="Page-1" id="NJkyedwWX6LBGlgDxpAk">
    <mxGraphModel dx="1297" dy="1163" grid="0" gridSize="10" guides="1" tooltips="1" connect="1" arrows="1" fold="1" page="1" pageScale="1" pageWidth="850" pageHeight="1100" math="0" shadow="0">
      <root>
        <mxCell id="0" />
        <mxCell id="1" parent="0" />
        <mxCell id="XxTeaGpe2nwEKWKB7cLw-24" value="" style="group" vertex="1" connectable="0" parent="1">
          <mxGeometry x="87" y="209" width="694" height="397" as="geometry" />
        </mxCell>
        <mxCell id="XxTeaGpe2nwEKWKB7cLw-14" value="" style="rounded=0;whiteSpace=wrap;html=1;" vertex="1" parent="XxTeaGpe2nwEKWKB7cLw-24">
          <mxGeometry y="37" width="720" height="360" as="geometry" />
        </mxCell>
        <mxCell id="XxTeaGpe2nwEKWKB7cLw-22" value="E-COMMERCE PLATFORM" style="text;html=1;align=center;verticalAlign=middle;whiteSpace=wrap;rounded=0;fontSize=16;" vertex="1" parent="XxTeaGpe2nwEKWKB7cLw-24">
          <mxGeometry x="209.5" width="275" height="30" as="geometry" />
        </mxCell>
        <mxCell id="XxTeaGpe2nwEKWKB7cLw-33" value="" style="rounded=0;whiteSpace=wrap;html=1;" vertex="1" parent="XxTeaGpe2nwEKWKB7cLw-24">
          <mxGeometry y="37" width="180" height="60" as="geometry" />
        </mxCell>
        <mxCell id="XxTeaGpe2nwEKWKB7cLw-29" value="Store Management Service" style="text;html=1;align=center;verticalAlign=middle;whiteSpace=wrap;rounded=0;fontSize=12;" vertex="1" parent="XxTeaGpe2nwEKWKB7cLw-24">
          <mxGeometry x="-6" y="52" width="192" height="30" as="geometry" />
        </mxCell>
        <mxCell id="XxTeaGpe2nwEKWKB7cLw-41" value="" style="rounded=0;whiteSpace=wrap;html=1;" vertex="1" parent="XxTeaGpe2nwEKWKB7cLw-24">
          <mxGeometry x="180" y="37" width="180" height="60" as="geometry" />
        </mxCell>
        <mxCell id="XxTeaGpe2nwEKWKB7cLw-42" value="" style="rounded=0;whiteSpace=wrap;html=1;" vertex="1" parent="XxTeaGpe2nwEKWKB7cLw-24">
          <mxGeometry x="360" y="37" width="180" height="60" as="geometry" />
        </mxCell>
        <mxCell id="XxTeaGpe2nwEKWKB7cLw-44" value="User Management Service" style="text;html=1;align=center;verticalAlign=middle;whiteSpace=wrap;rounded=0;fontSize=12;" vertex="1" parent="XxTeaGpe2nwEKWKB7cLw-24">
          <mxGeometry x="174" y="52" width="192" height="30" as="geometry" />
        </mxCell>
        <mxCell id="XxTeaGpe2nwEKWKB7cLw-45" value="Product Management Service" style="text;html=1;align=center;verticalAlign=middle;whiteSpace=wrap;rounded=0;fontSize=12;" vertex="1" parent="XxTeaGpe2nwEKWKB7cLw-24">
          <mxGeometry x="354" y="52" width="192" height="30" as="geometry" />
        </mxCell>
        <mxCell id="XxTeaGpe2nwEKWKB7cLw-49" value="" style="rounded=0;whiteSpace=wrap;html=1;" vertex="1" parent="XxTeaGpe2nwEKWKB7cLw-24">
          <mxGeometry x="540" y="37" width="180" height="60" as="geometry" />
        </mxCell>
        <mxCell id="XxTeaGpe2nwEKWKB7cLw-48" value="Order Management Service" style="text;html=1;align=center;verticalAlign=middle;whiteSpace=wrap;rounded=0;fontSize=12;" vertex="1" parent="XxTeaGpe2nwEKWKB7cLw-24">
          <mxGeometry x="534" y="52" width="192" height="30" as="geometry" />
        </mxCell>
        <mxCell id="XxTeaGpe2nwEKWKB7cLw-50" value="" style="rounded=0;whiteSpace=wrap;html=1;" vertex="1" parent="XxTeaGpe2nwEKWKB7cLw-24">
          <mxGeometry y="97" width="180" height="60" as="geometry" />
        </mxCell>
        <mxCell id="XxTeaGpe2nwEKWKB7cLw-51" value="" style="rounded=0;whiteSpace=wrap;html=1;" vertex="1" parent="XxTeaGpe2nwEKWKB7cLw-24">
          <mxGeometry x="180" y="97" width="180" height="60" as="geometry" />
        </mxCell>
        <mxCell id="XxTeaGpe2nwEKWKB7cLw-52" value="" style="rounded=0;whiteSpace=wrap;html=1;" vertex="1" parent="XxTeaGpe2nwEKWKB7cLw-24">
          <mxGeometry x="360" y="97" width="180" height="60" as="geometry" />
        </mxCell>
        <mxCell id="XxTeaGpe2nwEKWKB7cLw-53" value="" style="rounded=0;whiteSpace=wrap;html=1;" vertex="1" parent="XxTeaGpe2nwEKWKB7cLw-24">
          <mxGeometry x="540" y="97" width="180" height="60" as="geometry" />
        </mxCell>
        <mxCell id="XxTeaGpe2nwEKWKB7cLw-54" value="Subscription Management Service" style="text;html=1;align=center;verticalAlign=middle;whiteSpace=wrap;rounded=0;fontSize=12;" vertex="1" parent="XxTeaGpe2nwEKWKB7cLw-24">
          <mxGeometry x="182" y="112" width="176" height="30" as="geometry" />
        </mxCell>
        <mxCell id="XxTeaGpe2nwEKWKB7cLw-55" value="Payment Service" style="text;html=1;align=center;verticalAlign=middle;whiteSpace=wrap;rounded=0;fontSize=12;" vertex="1" parent="XxTeaGpe2nwEKWKB7cLw-24">
          <mxGeometry x="-6" y="112" width="192" height="30" as="geometry" />
        </mxCell>
        <mxCell id="XxTeaGpe2nwEKWKB7cLw-56" value="Analytics Service" style="text;html=1;align=center;verticalAlign=middle;whiteSpace=wrap;rounded=0;fontSize=12;" vertex="1" parent="XxTeaGpe2nwEKWKB7cLw-24">
          <mxGeometry x="542" y="112" width="176" height="30" as="geometry" />
        </mxCell>
        <mxCell id="XxTeaGpe2nwEKWKB7cLw-57" value="Notification Service" style="text;html=1;align=center;verticalAlign=middle;whiteSpace=wrap;rounded=0;fontSize=12;" vertex="1" parent="XxTeaGpe2nwEKWKB7cLw-24">
          <mxGeometry x="362" y="112" width="176" height="30" as="geometry" />
        </mxCell>
        <mxCell id="XxTeaGpe2nwEKWKB7cLw-58" value="" style="rounded=0;whiteSpace=wrap;html=1;" vertex="1" parent="XxTeaGpe2nwEKWKB7cLw-24">
          <mxGeometry y="157" width="360" height="60" as="geometry" />
        </mxCell>
        <mxCell id="XxTeaGpe2nwEKWKB7cLw-59" value="App Store/Plugin Management Service" style="text;html=1;align=center;verticalAlign=middle;whiteSpace=wrap;rounded=0;fontSize=12;" vertex="1" parent="XxTeaGpe2nwEKWKB7cLw-24">
          <mxGeometry x="67.5" y="172" width="225" height="30" as="geometry" />
        </mxCell>
        <mxCell id="XxTeaGpe2nwEKWKB7cLw-11" value="System Context Diagram: E-Commerce Platform" style="text;html=1;align=center;verticalAlign=middle;whiteSpace=wrap;rounded=0;fontSize=16;labelBorderColor=none;" vertex="1" parent="1">
          <mxGeometry x="266" y="25" width="318" height="67" as="geometry" />
        </mxCell>
        <mxCell id="XxTeaGpe2nwEKWKB7cLw-13" value="This diagram shows how users (customers, store owners) and external systems interact with the e-commerce platform." style="text;html=1;align=center;verticalAlign=middle;whiteSpace=wrap;rounded=0;fontSize=12;labelBorderColor=none;" vertex="1" parent="1">
          <mxGeometry x="266" y="84" width="318" height="67" as="geometry" />
        </mxCell>
        <mxCell id="XxTeaGpe2nwEKWKB7cLw-17" value="" style="group" vertex="1" connectable="0" parent="1">
          <mxGeometry x="151" y="718" width="60" height="82" as="geometry" />
        </mxCell>
        <mxCell id="XxTeaGpe2nwEKWKB7cLw-15" value="" style="verticalLabelPosition=bottom;html=1;verticalAlign=top;align=center;strokeColor=#82b366;fillColor=#d5e8d4;shape=mxgraph.azure.user;" vertex="1" parent="XxTeaGpe2nwEKWKB7cLw-17">
          <mxGeometry x="6.25" width="47.5" height="50" as="geometry" />
        </mxCell>
        <mxCell id="XxTeaGpe2nwEKWKB7cLw-16" value="&lt;div&gt;Customer&lt;/div&gt;" style="text;html=1;align=center;verticalAlign=middle;whiteSpace=wrap;rounded=0;" vertex="1" parent="XxTeaGpe2nwEKWKB7cLw-17">
          <mxGeometry y="52" width="60" height="30" as="geometry" />
        </mxCell>
        <mxCell id="XxTeaGpe2nwEKWKB7cLw-21" value="" style="group" vertex="1" connectable="0" parent="1">
          <mxGeometry x="377" y="711.5" width="81" height="82" as="geometry" />
        </mxCell>
        <mxCell id="XxTeaGpe2nwEKWKB7cLw-18" value="" style="verticalLabelPosition=bottom;html=1;verticalAlign=top;align=center;strokeColor=#6c8ebf;fillColor=#dae8fc;shape=mxgraph.azure.user;" vertex="1" parent="XxTeaGpe2nwEKWKB7cLw-21">
          <mxGeometry x="16.75" width="47.5" height="50" as="geometry" />
        </mxCell>
        <mxCell id="XxTeaGpe2nwEKWKB7cLw-19" value="&lt;div&gt;Store Owner&lt;/div&gt;" style="text;html=1;align=center;verticalAlign=middle;whiteSpace=wrap;rounded=0;" vertex="1" parent="XxTeaGpe2nwEKWKB7cLw-21">
          <mxGeometry y="52" width="81" height="30" as="geometry" />
        </mxCell>
        <mxCell id="XxTeaGpe2nwEKWKB7cLw-62" value="" style="group" vertex="1" connectable="0" parent="1">
          <mxGeometry x="625" y="703" width="100" height="95" as="geometry" />
        </mxCell>
        <mxCell id="XxTeaGpe2nwEKWKB7cLw-60" value="" style="outlineConnect=0;dashed=0;verticalLabelPosition=bottom;verticalAlign=top;align=center;html=1;shape=mxgraph.aws3.add_on;fillColor=#759C3E;gradientColor=none;" vertex="1" parent="XxTeaGpe2nwEKWKB7cLw-62">
          <mxGeometry width="100" height="54" as="geometry" />
        </mxCell>
        <mxCell id="XxTeaGpe2nwEKWKB7cLw-61" value="ADMIN" style="text;html=1;align=center;verticalAlign=middle;whiteSpace=wrap;rounded=0;" vertex="1" parent="XxTeaGpe2nwEKWKB7cLw-62">
          <mxGeometry x="20" y="65" width="60" height="30" as="geometry" />
        </mxCell>
        <mxCell id="XxTeaGpe2nwEKWKB7cLw-70" value="" style="shape=doubleArrow;direction=south;whiteSpace=wrap;html=1;" vertex="1" parent="1">
          <mxGeometry x="174" y="626" width="21" height="72" as="geometry" />
        </mxCell>
        <mxCell id="XxTeaGpe2nwEKWKB7cLw-71" value="" style="shape=doubleArrow;direction=south;whiteSpace=wrap;html=1;" vertex="1" parent="1">
          <mxGeometry x="407" y="620" width="21" height="72" as="geometry" />
        </mxCell>
        <mxCell id="XxTeaGpe2nwEKWKB7cLw-72" value="" style="shape=doubleArrow;direction=south;whiteSpace=wrap;html=1;" vertex="1" parent="1">
          <mxGeometry x="664.5" y="626" width="21" height="72" as="geometry" />
        </mxCell>
      </root>
    </mxGraphModel>
  </diagram>
</mxfile>
